<svg width="28" height="22" viewBox="0 0 28 22" fill="none" xmlns="http://www.w3.org/2000/svg">
<path d="M24.6666 5.66732L14 12.334L3.33329 5.66732V3.00065L14 9.66732L24.6666 3.00065M24.6666 0.333984H3.33329C1.85329 0.333984 0.666626 1.52065 0.666626 3.00065V19.0006C0.666626 19.7079 0.947577 20.3862 1.44767 20.8863C1.94777 21.3864 2.62605 21.6673 3.33329 21.6673H24.6666C25.3739 21.6673 26.0521 21.3864 26.5522 20.8863C27.0523 20.3862 27.3333 19.7079 27.3333 19.0006V3.00065C27.3333 2.29341 27.0523 1.61513 26.5522 1.11503C26.0521 0.614936 25.3739 0.333984 24.6666 0.333984Z" fill="#318E84"/>
</svg>
