<svg width="28" height="28" viewBox="0 0 28 28" fill="none" xmlns="http://www.w3.org/2000/svg">
<path d="M14 0.720703C6.66663 0.720703 0.666626 6.70737 0.666626 14.0807C0.666626 20.7474 5.54662 26.2807 11.92 27.2807V17.9474H8.53329V14.0807H11.92V11.134C11.92 7.78737 13.9066 5.94737 16.96 5.94737C18.4133 5.94737 19.9333 6.2007 19.9333 6.2007V9.49404H18.2533C16.6 9.49404 16.08 10.5207 16.08 11.574V14.0807H19.7866L19.1866 17.9474H16.08V27.2807C19.2219 26.7845 22.0829 25.1814 24.1465 22.7608C26.2102 20.3402 27.3404 17.2616 27.3333 14.0807C27.3333 6.70737 21.3333 0.720703 14 0.720703Z" fill="#318E84"/>
</svg>
