<svg width="28" height="28" viewBox="0 0 28 28" fill="none" xmlns="http://www.w3.org/2000/svg">
<path d="M10.0533 26.7194C11.3333 27.106 12.6266 27.3327 14 27.3327C17.5362 27.3327 20.9276 25.9279 23.4281 23.4274C25.9285 20.927 27.3333 17.5356 27.3333 13.9994C27.3333 12.2484 26.9884 10.5146 26.3184 8.8969C25.6483 7.27923 24.6662 5.80937 23.4281 4.57126C22.1899 3.33314 20.7201 2.35102 19.1024 1.68096C17.4847 1.01089 15.7509 0.666016 14 0.666016C12.249 0.666016 10.5152 1.01089 8.89751 1.68096C7.27984 2.35102 5.80998 3.33314 4.57187 4.57126C2.07138 7.07174 0.666626 10.4631 0.666626 13.9994C0.666626 19.666 4.22663 24.5327 9.25329 26.4527C9.13329 25.4127 9.01329 23.6927 9.25329 22.506L10.7866 15.9194C10.7866 15.9194 10.4 15.146 10.4 13.9193C10.4 12.0793 11.5466 10.706 12.8533 10.706C14 10.706 14.5333 11.546 14.5333 12.626C14.5333 13.7727 13.7733 15.4127 13.3866 16.986C13.16 18.2927 14.08 19.4394 15.4133 19.4394C17.7866 19.4394 19.6266 16.906 19.6266 13.3327C19.6266 10.1327 17.3333 7.94602 14.04 7.94602C10.28 7.94602 8.06663 10.746 8.06663 13.6927C8.06663 14.8394 8.43996 15.9994 9.05329 16.7593C9.17329 16.8393 9.17329 16.946 9.13329 17.146L8.74663 18.5993C8.74663 18.826 8.59996 18.906 8.37329 18.746C6.66663 17.9994 5.67996 15.5727 5.67996 13.6127C5.67996 9.39935 8.66663 5.57268 14.4266 5.57268C19.0133 5.57268 22.5866 8.86602 22.5866 13.2394C22.5866 17.826 19.7466 21.506 15.68 21.506C14.3866 21.506 13.12 20.8127 12.6666 19.9994L11.7733 23.1594C11.4666 24.306 10.6266 25.8394 10.0533 26.7594V26.7194Z" fill="#318E84"/>
</svg>
