<svg width="22" height="24" viewBox="0 0 22 24" fill="none" xmlns="http://www.w3.org/2000/svg">
<path d="M18 16.7607C17.1133 16.7607 16.32 17.1107 15.7133 17.659L7.395 12.8173C7.45333 12.549 7.5 12.2807 7.5 12.0007C7.5 11.7207 7.45333 11.4523 7.395 11.184L15.62 6.38898C16.25 6.97232 17.0783 7.33398 18 7.33398C19.9367 7.33398 21.5 5.77065 21.5 3.83398C21.5 1.89732 19.9367 0.333984 18 0.333984C16.0633 0.333984 14.5 1.89732 14.5 3.83398C14.5 4.11398 14.5467 4.38232 14.605 4.65065L6.38 9.44565C5.75 8.86232 4.92167 8.50065 4 8.50065C2.06333 8.50065 0.5 10.064 0.5 12.0007C0.5 13.9373 2.06333 15.5007 4 15.5007C4.92167 15.5007 5.75 15.139 6.38 14.5557L14.6867 19.3973C14.6283 19.6423 14.5933 19.899 14.5933 20.1673C14.5933 22.0457 16.1217 23.5623 18 23.5623C19.8783 23.5623 21.4067 22.0457 21.4067 20.1673C21.4067 18.289 19.8783 16.7607 18 16.7607ZM18 2.66732C18.6417 2.66732 19.1667 3.19232 19.1667 3.83398C19.1667 4.47565 18.6417 5.00065 18 5.00065C17.3583 5.00065 16.8333 4.47565 16.8333 3.83398C16.8333 3.19232 17.3583 2.66732 18 2.66732ZM4 13.1673C3.35833 13.1673 2.83333 12.6423 2.83333 12.0007C2.83333 11.359 3.35833 10.834 4 10.834C4.64167 10.834 5.16667 11.359 5.16667 12.0007C5.16667 12.6423 4.64167 13.1673 4 13.1673ZM18 21.334C17.3583 21.334 16.8333 20.809 16.8333 20.1673C16.8333 19.5257 17.3583 19.0007 18 19.0007C18.6417 19.0007 19.1667 19.5257 19.1667 20.1673C19.1667 20.809 18.6417 21.334 18 21.334Z" fill="#318E84"/>
</svg>
