<svg width="28" height="23" viewBox="0 0 28 23" fill="none" xmlns="http://www.w3.org/2000/svg">
<path d="M27.9467 3.00065C26.92 3.46732 25.8133 3.77399 24.6667 3.92065C25.84 3.21399 26.7467 2.09398 27.1733 0.747318C26.0667 1.41398 24.84 1.88065 23.5467 2.14732C22.4933 1.00065 21.0133 0.333984 19.3333 0.333984C16.2 0.333984 13.64 2.89399 13.64 6.05399C13.64 6.50732 13.6933 6.94732 13.7867 7.36065C9.04001 7.12065 4.81334 4.84065 2.00001 1.38732C1.50668 2.22732 1.22668 3.21399 1.22668 4.25399C1.22668 6.24065 2.22668 8.00065 3.77334 9.00065C2.82668 9.00065 1.94668 8.73399 1.17334 8.33399V8.37399C1.17334 11.1473 3.14668 13.4673 5.76001 13.9873C4.92098 14.2169 4.04014 14.2489 3.18668 14.0807C3.54882 15.2173 4.25806 16.2119 5.2147 16.9246C6.17134 17.6373 7.32727 18.0322 8.52001 18.054C6.49818 19.6546 3.99201 20.5197 1.41334 20.5073C0.960011 20.5073 0.506678 20.4807 0.0533447 20.4273C2.58668 22.054 5.60001 23.0007 8.82668 23.0007C19.3333 23.0007 25.1067 14.2807 25.1067 6.72065C25.1067 6.46732 25.1067 6.22732 25.0933 5.97398C26.2133 5.17398 27.1733 4.16065 27.9467 3.00065Z" fill="#318E84"/>
</svg>
