<svg width="28" height="28" viewBox="0 0 28 28" fill="none" xmlns="http://www.w3.org/2000/svg">
<path d="M14.0533 0.666095C6.77328 0.666095 0.839943 6.59943 0.839943 13.8794C0.839943 16.2128 1.45328 18.4794 2.59994 20.4794L0.733276 27.3328L7.73328 25.4928C9.66661 26.5461 11.8399 27.1061 14.0533 27.1061C21.3333 27.1061 27.2666 21.1728 27.2666 13.8928C27.2666 10.3594 25.8933 7.03943 23.3999 4.54609C22.1775 3.31133 20.7215 2.33232 19.1168 1.66616C17.5121 1.00001 15.7908 0.660042 14.0533 0.666095ZM14.0666 2.89276C16.9999 2.89276 19.7466 4.03943 21.8266 6.11943C22.8474 7.1399 23.6567 8.35185 24.2082 9.68578C24.7596 11.0197 25.0422 12.4494 25.0399 13.8928C25.0399 19.9461 20.1066 24.8661 14.0533 24.8661C12.0799 24.8661 10.1466 24.3461 8.46661 23.3328L8.06661 23.1061L3.90661 24.1994L5.01328 20.1461L4.74661 19.7194C3.6452 17.971 3.06263 15.9459 3.06661 13.8794C3.07994 7.82609 7.99994 2.89276 14.0666 2.89276ZM9.37327 7.77276C9.15994 7.77276 8.79994 7.85276 8.49328 8.18609C8.19994 8.51943 7.33328 9.33276 7.33328 10.9461C7.33328 12.5728 8.51994 14.1328 8.66661 14.3594C8.85328 14.5861 11.0133 17.9194 14.3333 19.3328C15.1199 19.6928 15.7333 19.8928 16.2133 20.0394C16.9999 20.2928 17.7199 20.2528 18.2933 20.1728C18.9333 20.0794 20.2399 19.3728 20.5199 18.5994C20.7999 17.8261 20.7999 17.1728 20.7199 17.0261C20.6266 16.8928 20.4133 16.8128 20.0799 16.6661C19.7466 16.4794 18.1199 15.6794 17.8266 15.5728C17.5199 15.4661 17.3333 15.4128 17.0799 15.7328C16.8666 16.0661 16.2266 16.8128 16.0399 17.0261C15.8399 17.2528 15.6533 17.2794 15.3333 17.1194C14.9866 16.9461 13.9199 16.5994 12.6666 15.4794C11.6799 14.5994 11.0266 13.5194 10.8266 13.1861C10.6666 12.8661 10.8133 12.6661 10.9733 12.5194C11.1199 12.3728 11.3333 12.1328 11.4666 11.9328C11.6399 11.7461 11.6933 11.5994 11.7999 11.3861C11.9066 11.1594 11.8533 10.9728 11.7733 10.8128C11.6933 10.6661 11.0266 9.01276 10.7466 8.35943C10.4799 7.71943 10.2133 7.79943 9.99994 7.78609C9.81328 7.78609 9.59994 7.77276 9.37327 7.77276Z" fill="#318E84"/>
</svg>
